<svg width="86" height="87" viewBox="0 0 86 87" fill="none" xmlns="http://www.w3.org/2000/svg">
<path d="M43.4491 86.1125C40.3769 85.9127 37.4758 84.6271 35.2641 82.4855C30.9861 78.5795 26.7071 74.6725 22.4291 70.6735C20.569 68.9065 18.7091 67.2325 16.7551 65.4645C12.2901 61.3725 7.73305 57.1865 3.36205 52.9085C2.30112 51.8835 1.45781 50.655 0.882556 49.2966C0.307298 47.9382 0.0119117 46.4777 0.0140565 45.0025C-0.171944 40.8175 1.50205 37.5615 4.19905 34.6785C8.19905 30.3995 12.1051 26.0285 16.1041 21.7505C17.0341 20.7275 18.0571 19.6115 19.0801 18.5885C23.0801 14.3095 27.08 10.1245 30.892 5.75248C33.124 3.24148 35.4501 1.19549 38.7981 0.357491C40.8597 -0.144212 43.0146 -0.117454 45.0631 0.435281C47.1117 0.988015 48.9876 2.04883 50.517 3.51948C54.702 7.33248 58.888 11.3325 63.073 15.1455C65.956 17.7455 68.747 20.4455 71.6301 23.0515C75.257 26.3995 78.978 29.6515 82.512 33.0965C84.443 35.0483 85.6278 37.6158 85.8601 40.3515C86.077 42.3003 85.8369 44.2729 85.1589 46.1128C84.4809 47.9527 83.3836 49.6094 81.9541 50.9515C77.2101 55.9745 72.6541 61.0895 68.0021 66.2055C65.6771 68.7165 63.351 71.1355 61.119 73.6465C58.419 76.6225 55.8191 79.5995 52.9341 82.4825C50.6141 84.9035 47.6341 86.1125 43.4491 86.1125Z" fill="#80ABDB"/>
<path d="M44.286 82.7645C41.7488 82.739 39.3182 81.7403 37.496 79.9745C33.311 76.0685 29.125 72.2545 24.847 68.4415C23.731 67.4185 22.615 66.3025 21.406 65.2795C18.058 62.3035 14.895 59.1405 11.547 56.1645C9.50104 54.3045 7.45503 52.6305 5.59403 50.6765C4.10111 49.1201 3.22212 47.0758 3.11955 44.9215C3.01697 42.7673 3.69775 40.6487 5.03603 38.9575C6.80303 36.7255 8.84903 34.5865 10.803 32.4465C15.082 27.7025 19.453 23.0525 23.731 18.4015C25.87 16.0765 28.102 13.7505 30.242 11.4255C31.823 9.75151 33.311 7.98451 34.892 6.30951C35.7901 5.36982 36.8744 4.62798 38.0757 4.13153C39.2769 3.63509 40.5686 3.39495 41.868 3.42649C44.1769 3.50024 46.385 4.38992 48.1 5.9375C50.425 8.0765 52.658 10.2165 54.89 12.2625L66.8901 23.1445C68.8431 24.9115 70.796 26.7715 72.75 28.5395C75.168 30.7715 77.587 33.0035 80.005 35.3295C81.6621 37.0737 82.586 39.3877 82.586 41.7935C82.586 44.1993 81.6621 46.5133 80.005 48.2575C76.099 52.3495 72.378 56.6285 68.565 60.8135C66.798 62.7665 64.9381 64.7195 63.1701 66.6735C59.1701 71.0455 55.17 75.3235 51.17 79.6015C50.3309 80.6086 49.2773 81.4152 48.0862 81.9625C46.8951 82.5098 45.5967 82.7838 44.286 82.7645Z" fill="white"/>
<path d="M30.7071 56.1625C30.0561 58.3015 30.6141 60.4405 30.1491 62.5805C29.8701 63.9805 29.3121 64.8125 28.3821 64.9055C27.3591 64.9985 26.8011 64.4405 26.4291 62.7665C25.8704 60.045 25.6827 57.2604 25.8711 54.4885C25.9641 53.2795 25.499 52.9075 24.383 52.9075C22.802 52.9075 22.337 52.5355 22.616 50.8615C22.988 48.3505 23.825 45.9315 24.29 43.4205C24.383 42.8625 24.5691 42.3045 24.6621 41.8395C24.7645 41.4721 24.7574 41.0828 24.6418 40.7194C24.5262 40.3559 24.307 40.0341 24.0111 39.7935C23.0187 39.0796 22.1936 38.1583 21.5931 37.0935C20.6631 35.2335 21.314 33.5595 22.523 32.1635C23.4927 31.0247 24.5842 29.9955 25.7781 29.0945C26.9229 28.3127 28.24 27.8198 29.6168 27.6579C30.9935 27.4959 32.3891 27.6697 33.684 28.1645C35.73 28.8155 36.8461 30.4895 37.8691 32.2565C39.4208 35.1763 40.2199 38.437 40.1941 41.7435C40.1941 42.4875 40.287 42.9525 41.217 42.8595C41.5344 42.8765 41.8476 42.9391 42.1471 43.0455C43.8211 43.3245 44.0071 43.5105 44.0071 45.1845C44.0071 46.2075 44.286 47.0445 44.286 48.0675C44.286 48.6255 44.6581 48.6255 45.0301 48.6255H52.1921C52.8431 48.6255 52.936 48.3465 53.029 47.7885C53.2304 45.1893 53.2925 42.5813 53.215 39.9755C53.215 39.0455 53.494 38.7665 54.424 38.7665C59.261 38.9525 65.3991 43.0445 64.7481 49.4665C64.614 51.1395 64.0574 52.7512 63.1304 54.1504C62.2034 55.5496 60.9364 56.6906 59.448 57.4665C59.076 57.6525 58.518 57.7455 58.518 58.3035C58.534 58.5739 58.6194 58.8355 58.766 59.0633C58.9127 59.291 59.1155 59.477 59.355 59.6035C60.1921 59.9755 60.936 60.5335 61.773 60.9035C62.1272 61.0619 62.4241 61.3253 62.6237 61.6579C62.8233 61.9906 62.9159 62.3765 62.889 62.7635C62.8769 63.1544 62.7578 63.5346 62.5447 63.8626C62.3315 64.1905 62.0324 64.4537 61.6801 64.6235C61.3199 64.8195 60.9045 64.8894 60.5 64.822C60.0955 64.7545 59.7252 64.5537 59.448 64.2515C58.332 63.2285 57.8671 61.6515 56.7481 60.6245C55.7251 59.6015 54.8881 58.2995 53.1211 58.2995C52.7711 58.2875 52.424 58.367 52.1142 58.5301C51.8043 58.6932 51.5423 58.9342 51.3541 59.2295C50.0267 61.0706 48.5657 62.8116 46.9831 64.4385C46.7293 64.773 46.3805 65.023 45.9822 65.1558C45.5839 65.2886 45.1547 65.2979 44.751 65.1825C44.3236 65.0504 43.945 64.7942 43.6635 64.4465C43.382 64.0987 43.2102 63.6751 43.1701 63.2295C43.141 62.8182 43.2421 62.4083 43.4591 62.0577C43.6761 61.7071 43.998 61.4338 44.3791 61.2765L47.4481 59.3235C48.2851 58.7655 48.285 58.3935 47.355 57.8355C46.3651 57.3574 45.4545 56.7301 44.6551 55.9755C44.4691 55.7895 44.2831 55.6965 44.1901 55.5105C42.8901 52.9995 40.935 50.8595 41.49 47.6975C41.769 46.2975 41.025 45.5585 39.723 45.0975C39.4362 44.9541 39.1117 44.9039 38.7949 44.9539C38.478 45.0039 38.1848 45.1517 37.956 45.3765C37.398 45.8415 37.5841 46.3995 37.6771 46.9575C38.1745 48.6551 38.4863 50.4016 38.607 52.1665C38.607 52.8175 38.4211 53.0035 37.7701 53.0035C35.3521 53.0965 35.2591 53.0965 35.2591 55.5145C35.2591 57.9325 34.98 60.2585 34.98 62.5835C35.035 63.0226 34.9471 63.4677 34.7294 63.853C34.5116 64.2382 34.1756 64.5431 33.771 64.7225C32.19 65.2805 31.0711 64.4435 30.9811 62.5835C30.8881 61.4675 30.9811 60.2585 30.9811 59.1425C31.122 58.1413 31.0282 57.1212 30.7071 56.1625Z" fill="#F3B3CE"/>
<path d="M36.0081 22.0285C35.9213 23.3658 35.357 24.6275 34.4179 25.5836C33.4789 26.5397 32.2276 27.1267 30.8921 27.2375C28.5671 27.2375 25.6831 24.3545 25.7761 22.0285C25.7592 21.3398 25.8824 20.6549 26.1382 20.0153C26.394 19.3757 26.7771 18.7947 27.2642 18.3076C27.7513 17.8205 28.3323 17.4374 28.9719 17.1816C29.6115 16.9258 30.2964 16.8026 30.9851 16.8195C31.662 16.8144 32.3329 16.947 32.9569 17.2093C33.5809 17.4717 34.145 17.8583 34.6149 18.3456C35.0848 18.8329 35.4506 19.4107 35.6901 20.0438C35.9296 20.677 36.0378 21.3522 36.0081 22.0285Z" fill="#F3B3CE"/>
<path d="M33.497 41.0955C32.4661 41.0719 31.4644 40.7488 30.614 40.1655C30.4932 40.084 30.3954 39.9727 30.3303 39.8424C30.2651 39.712 30.2347 39.5671 30.242 39.4215C30.335 38.3055 29.591 37.9335 28.568 37.7475C27.6735 37.6627 26.7969 37.4432 25.968 37.0965C25.6537 36.9817 25.3891 36.7612 25.2195 36.4728C25.0498 36.1844 24.9857 35.846 25.038 35.5155C24.985 35.0751 25.0625 34.6287 25.2609 34.2319C25.4593 33.8352 25.7699 33.5054 26.154 33.2835C26.2853 33.178 26.4372 33.101 26.6 33.0577C26.7628 33.0143 26.9329 33.0055 27.0993 33.0318C27.2657 33.0581 27.4248 33.1188 27.5663 33.2102C27.7078 33.3016 27.8286 33.4216 27.921 33.5625C29.13 35.4225 31.176 35.7015 32.944 36.6315C33.7502 37.0192 34.4759 37.5556 35.083 38.2125C35.3877 38.4231 35.6099 38.733 35.7116 39.0891C35.8134 39.4453 35.7884 39.8257 35.641 40.1655C35.362 40.9095 34.618 41.0025 33.967 41.1885C33.8262 41.1032 33.6597 41.0702 33.497 41.0955Z" fill="#FFFBFD"/>
</svg>
