<svg width="14" height="10" viewBox="0 0 14 10" fill="none" xmlns="http://www.w3.org/2000/svg">
<path d="M11.88 0.338989H1.95604C1.65244 0.339254 1.36136 0.459973 1.14669 0.674644C0.932019 0.889316 0.8113 1.1804 0.811035 1.48399L0.811035 8.35699C0.8113 8.66058 0.932019 8.95166 1.14669 9.16633C1.36136 9.381 1.65244 9.50172 1.95604 9.50199H11.88C12.1836 9.50172 12.4747 9.381 12.6894 9.16633C12.9041 8.95166 13.0248 8.66058 13.025 8.35699V1.48399C13.0248 1.1804 12.9041 0.889316 12.6894 0.674644C12.4747 0.459973 12.1836 0.339254 11.88 0.338989ZM11.88 1.10199C11.9302 1.10225 11.9798 1.11245 12.026 1.13199L6.91804 5.55699L1.81104 1.13199C1.85724 1.11245 1.90687 1.10225 1.95704 1.10199H11.88ZM11.88 8.73599H1.95604C1.85524 8.73599 1.75853 8.69616 1.68698 8.62516C1.61542 8.55417 1.57483 8.45778 1.57404 8.35699V1.93799L6.66804 6.35699C6.73746 6.41708 6.82621 6.45015 6.91804 6.45015C7.00986 6.45015 7.09861 6.41708 7.16804 6.35699L12.262 1.94299V8.35699C12.2612 8.45778 12.2206 8.55417 12.1491 8.62516C12.0775 8.69616 11.9808 8.73599 11.88 8.73599Z" fill="#E36DA6"/>
</svg>
