<svg width="12" height="12" viewBox="0 0 12 12" fill="none" xmlns="http://www.w3.org/2000/svg">
<path d="M9.56301 7.476C9.02452 6.93572 8.36993 6.52532 7.64901 6.276C8.16104 5.9239 8.547 5.41724 8.75047 4.83009C8.95395 4.24295 8.96427 3.60611 8.77992 3.01268C8.59557 2.41925 8.22622 1.90035 7.72587 1.53185C7.22552 1.16335 6.62042 0.964569 5.99901 0.964569C5.37761 0.964569 4.7725 1.16335 4.27215 1.53185C3.7718 1.90035 3.40246 2.41925 3.21811 3.01268C3.03376 3.60611 3.04408 4.24295 3.24755 4.83009C3.45103 5.41724 3.83699 5.9239 4.34901 6.276C3.36044 6.62022 2.50341 7.26344 1.89673 8.11649C1.29004 8.96955 0.963723 9.9902 0.963013 11.037H1.75001C1.75001 9.90982 2.19778 8.82882 2.99481 8.03179C3.79184 7.23476 4.87284 6.78699 6.00001 6.78699C7.12718 6.78699 8.20819 7.23476 9.00522 8.03179C9.80225 8.82882 10.25 9.90982 10.25 11.037H11.037C11.0391 10.3754 10.9099 9.72003 10.6569 9.10877C10.4039 8.4975 10.0321 7.94253 9.56301 7.476ZM6.00001 6C5.57973 6 5.16888 5.87537 4.81943 5.64187C4.46997 5.40837 4.1976 5.07649 4.03677 4.6882C3.87593 4.2999 3.83385 3.87264 3.91584 3.46043C3.99784 3.04822 4.20022 2.66958 4.49741 2.37239C4.7946 2.07521 5.17324 1.87282 5.58545 1.79083C5.99766 1.70883 6.42492 1.75091 6.81321 1.91175C7.20151 2.07259 7.53339 2.34495 7.76689 2.69441C8.00038 3.04386 8.12501 3.45471 8.12501 3.87499C8.12448 4.43842 7.90043 4.97861 7.50203 5.37701C7.10363 5.77541 6.56344 5.99947 6.00001 6Z" fill="#E36DA6"/>
</svg>
