<svg width="88" height="112" viewBox="0 0 88 112" fill="none" xmlns="http://www.w3.org/2000/svg">
<path d="M20.3581 105.313C19.2836 106.928 17.7544 108.188 15.9638 108.934C14.1732 109.68 12.2016 109.878 10.2984 109.504C8.39513 109.129 6.64571 108.199 5.27127 106.83C3.89682 105.461 2.95912 103.716 2.57669 101.814C2.19425 99.9122 2.38423 97.9398 3.12271 96.1462C3.86118 94.3525 5.11499 92.8181 6.72549 91.737C8.33598 90.6558 10.2308 90.0765 12.1706 90.0722C14.1103 90.0679 16.0078 90.639 17.6231 91.7131C18.6958 92.4264 19.6173 93.3439 20.3354 94.4135C21.0534 95.483 21.5537 96.6835 21.8076 97.9465C22.0616 99.2094 22.0643 100.51 21.8156 101.774C21.5668 103.038 21.0716 104.241 20.3581 105.313V105.313Z" stroke="#666666" stroke-width="3.04" stroke-miterlimit="10"/>
<path d="M55.137 14.95C55.137 14.95 5.19098 75.026 2.38098 99.881" stroke="#666666" stroke-width="3.04" stroke-miterlimit="10"/>
<path d="M78.485 30.4779C78.485 30.4779 41.705 94.036 20.162 105.578" stroke="#666666" stroke-width="3.04" stroke-miterlimit="10"/>
<path d="M79.213 3.53005C75.2116 0.869129 70.317 -0.0933372 65.606 0.854268C60.895 1.80187 56.7533 4.58192 54.092 8.58303L48.4109 17.125L58.231 23.6581L61.0729 19.385C63.8439 15.22 67.0259 15.546 69.9319 17.479C72.8379 19.412 74.372 22.2221 71.602 26.3891L68.7609 30.661L78.58 37.193L84.262 28.652C86.9236 24.651 87.887 19.7567 86.9401 15.0454C85.9933 10.3342 83.2137 6.19204 79.213 3.53005Z" fill="#F990BD"/>
<g style="mix-blend-mode:multiply">
<path d="M79.213 3.53094C78.0984 2.79176 76.9058 2.17749 75.6569 1.69904C72.9149 4.27204 72.949 9.22503 72.846 12.84C72.8213 14.9591 73.0139 17.0752 73.421 19.155C73.721 20.822 74.3759 22.3821 73.6209 23.9791C73.0515 25.1867 72.2062 26.2434 71.153 27.064L68.7599 30.664L78.5789 37.196L84.2609 28.654C86.923 24.653 87.8867 19.7585 86.94 15.0471C85.9933 10.3356 83.2138 6.19311 79.213 3.53094Z" fill="#FBBED3"/>
</g>
<g style="mix-blend-mode:multiply">
<path d="M79.213 3.52602C78.825 3.27002 78.432 3.03503 78.033 2.81203C76.015 5.52203 76.5469 9.83298 78.1039 12.736C84.0039 23.758 73.434 33.765 73.434 33.765L78.5789 37.188L84.2609 28.646C86.922 24.6453 87.8852 19.7514 86.9385 15.0407C85.9919 10.3299 83.213 6.18815 79.213 3.52602Z" fill="#FBBED3"/>
</g>
<path opacity="0.4" d="M56.165 8.61193C53.931 10.5379 52.1199 15.602 52.7859 16.037C53.7719 16.686 54.505 17.3569 55.433 16.7689C57.379 15.5389 58.139 12.969 60.27 11.849C62.07 10.912 64.244 11.299 66.059 10.442C67.718 9.66201 69.2289 7.18397 67.7439 5.54797C64.8679 2.37197 58.408 6.68293 56.165 8.61193Z" fill="#FFFACC"/>
</svg>
