<svg width="11" height="17" viewBox="0 0 11 17" fill="none" xmlns="http://www.w3.org/2000/svg">
<path d="M9 0H1.36C0.999102 0.00158484 0.653496 0.145927 0.398674 0.401498C0.143853 0.657069 0.000524928 1.0031 0 1.364V15.007C0.000529032 15.3686 0.144408 15.7152 0.400093 15.9709C0.655778 16.2266 1.00241 16.3705 1.364 16.371H9C9.36159 16.3705 9.70823 16.2266 9.96391 15.9709C10.2196 15.7152 10.3635 15.3686 10.364 15.007V1.364C10.3635 1.00241 10.2196 0.655776 9.96391 0.400091C9.70823 0.144406 9.36159 0.000529032 9 0V0ZM9.819 15.007C9.819 15.2242 9.73271 15.4325 9.57912 15.5861C9.42552 15.7397 9.21721 15.826 9 15.826H1.36C1.14279 15.826 0.934468 15.7397 0.780876 15.5861C0.627284 15.4325 0.541 15.2242 0.541 15.007V14.734H9.818L9.819 15.007ZM9.819 14.188H0.545998V2.183H9.823L9.819 14.188ZM9.819 1.637H0.545998V1.364C0.545998 1.14679 0.632289 0.938472 0.785881 0.78488C0.939473 0.631287 1.14779 0.545 1.365 0.545H9C9.21721 0.545 9.42552 0.631287 9.57912 0.78488C9.73271 0.938472 9.819 1.14679 9.819 1.364V1.637Z" fill="#E36DA6"/>
<path d="M4.63901 0.819H4.093C4.0206 0.819 3.95116 0.847763 3.89996 0.89896C3.84877 0.950158 3.82001 1.0196 3.82001 1.092C3.82001 1.16441 3.84877 1.23384 3.89996 1.28504C3.95116 1.33624 4.0206 1.365 4.093 1.365H4.63901C4.71141 1.365 4.78085 1.33624 4.83205 1.28504C4.88324 1.23384 4.912 1.16441 4.912 1.092C4.912 1.0196 4.88324 0.950158 4.83205 0.89896C4.78085 0.847763 4.71141 0.819 4.63901 0.819Z" fill="#E36DA6"/>
<path d="M6.54802 0.819H5.45702C5.38461 0.819 5.31517 0.847763 5.26398 0.89896C5.21278 0.950158 5.18402 1.0196 5.18402 1.092C5.18402 1.16441 5.21278 1.23384 5.26398 1.28504C5.31517 1.33624 5.38461 1.365 5.45702 1.365H6.54802C6.62042 1.365 6.68986 1.33624 6.74106 1.28504C6.79226 1.23384 6.82101 1.16441 6.82101 1.092C6.82101 1.0196 6.79226 0.950158 6.74106 0.89896C6.68986 0.847763 6.62042 0.819 6.54802 0.819Z" fill="#E36DA6"/>
<path d="M6.00302 15.007H4.36601C4.29361 15.007 4.22417 15.0358 4.17297 15.087C4.12178 15.1382 4.09302 15.2076 4.09302 15.28C4.09302 15.3524 4.12178 15.4218 4.17297 15.473C4.22417 15.5242 4.29361 15.553 4.36601 15.553H6.00302C6.07543 15.553 6.14486 15.5242 6.19606 15.473C6.24726 15.4218 6.27602 15.3524 6.27602 15.28C6.27602 15.2076 6.24726 15.1382 6.19606 15.087C6.14486 15.0358 6.07543 15.007 6.00302 15.007Z" fill="#E36DA6"/>
</svg>
